<?xml version="1.0"?>
<!DOCTYPE svg PUBLIC "-//W3C//DTD SVG 1.1//EN" "http://www.w3.org/Graphics/SVG/1.1/DTD/svg11.dtd">
<svg width="117.269744306mm" height="102.299406751mm" viewBox="0 0 117.269744306 102.299406751" xmlns="http://www.w3.org/2000/svg" version="1.1">
<g id="Body" transform="translate(78.778903,50.916347) scale(1,-1)">
<path id="Body_f0000"  d="M -77.6291994877 -26.2521385853 L -77.6291994877 -26.2521385853 L -12.6588619325 49.7666435542 L -12.6588619325 49.7666435542 L -77.6291994877 -26.2521385853 Z " stroke="#191919" stroke-width="0.35 px" style="stroke-width:0.35;stroke-miterlimit:4;stroke-dasharray:none;fill:#cccccc;fill-rule: evenodd "/>
<path id="Body_f0001"  d="M -12.6588619325 49.7666435542 L -12.6588619325 49.7666435542 L 37.3411380675 49.7666435542 L 37.3411380675 49.7666435542 L -12.6588619325 49.7666435542 Z " stroke="#191919" stroke-width="0.35 px" style="stroke-width:0.35;stroke-miterlimit:4;stroke-dasharray:none;fill:#cccccc;fill-rule: evenodd "/>
<path id="Body_f0002"  d="M 37.3411380675 49.7666435542 L 37.3411380675 49.7666435542 L 37.3411380675 29.7666435542 L 37.3411380675 29.7666435542 L 37.3411380675 49.7666435542 Z " stroke="#191919" stroke-width="0.35 px" style="stroke-width:0.35;stroke-miterlimit:4;stroke-dasharray:none;fill:#cccccc;fill-rule: evenodd "/>
<path id="Body_f0003"  d="M 37.3411380675 29.7666435542 L 37.3411380675 29.7666435542 L -0.451770195517 29.7666435542 L -0.451770195517 29.7666435542 L 37.3411380675 29.7666435542 Z " stroke="#191919" stroke-width="0.35 px" style="stroke-width:0.35;stroke-miterlimit:4;stroke-dasharray:none;fill:#cccccc;fill-rule: evenodd "/>
<path id="Body_f0004"  d="M -0.451770195517 29.7666435542 L -0.451770195517 29.7666435542 L -35.9984356072 -15.5946998795 L -35.9984356072 -15.5946998795 L -0.451770195517 29.7666435542 Z " stroke="#191919" stroke-width="0.35 px" style="stroke-width:0.35;stroke-miterlimit:4;stroke-dasharray:none;fill:#cccccc;fill-rule: evenodd "/>
<path id="Body_f0005"  d="M -35.9984356072 -15.5946998795 L -35.9984356072 -15.5946998795 L -35.9984356072 -24.0 L -35.9984356072 -24.0 L -35.9984356072 -15.5946998795 Z " stroke="#191919" stroke-width="0.35 px" style="stroke-width:0.35;stroke-miterlimit:4;stroke-dasharray:none;fill:#cccccc;fill-rule: evenodd "/>
<path id="Body_f0006"  d="M -35.9984356072 -24.0 L -35.9984356072 -24.0 L -30.0 -30.2333564458 L -30.0 -30.2333564458 L -35.9984356072 -24.0 Z " stroke="#191919" stroke-width="0.35 px" style="stroke-width:0.35;stroke-miterlimit:4;stroke-dasharray:none;fill:#cccccc;fill-rule: evenodd "/>
<path id="Body_f0007"  d="M -30.0 -30.2333564458 L -30.0 -30.2333564458 L 36.6720433651 -30.2333564458 L 36.6720433651 -30.2333564458 L -30.0 -30.2333564458 Z " stroke="#191919" stroke-width="0.35 px" style="stroke-width:0.35;stroke-miterlimit:4;stroke-dasharray:none;fill:#cccccc;fill-rule: evenodd "/>
<path id="Body_f0008"  d="M 36.6720433651 -30.2333564458 L 36.6720433651 -30.2333564458 L 36.6720433651 -50.2333564458 L 36.6720433651 -50.2333564458 L 36.6720433651 -30.2333564458 Z " stroke="#191919" stroke-width="0.35 px" style="stroke-width:0.35;stroke-miterlimit:4;stroke-dasharray:none;fill:#cccccc;fill-rule: evenodd "/>
<path id="Body_f0009"  d="M 36.6720433651 -50.2333564458 L 36.6720433651 -50.2333564458 L -63.3279566349 -50.2333564458 L -63.3279566349 -50.2333564458 L 36.6720433651 -50.2333564458 Z " stroke="#191919" stroke-width="0.35 px" style="stroke-width:0.35;stroke-miterlimit:4;stroke-dasharray:none;fill:#cccccc;fill-rule: evenodd "/>
<path id="Body_f0010"  d="M -63.3279566349 -50.2333564458 L -63.3279566349 -50.2333564458 L -77.6291994877 -36.2521385853 L -77.6291994877 -36.2521385853 L -63.3279566349 -50.2333564458 Z " stroke="#191919" stroke-width="0.35 px" style="stroke-width:0.35;stroke-miterlimit:4;stroke-dasharray:none;fill:#cccccc;fill-rule: evenodd "/>
<path id="Body_f0011"  d="M -77.6291994877 -36.2521385853 L -77.6291994877 -36.2521385853 L -77.6291994877 -26.2521385853 L -77.6291994877 -26.2521385853 L -77.6291994877 -36.2521385853 Z " stroke="#191919" stroke-width="0.35 px" style="stroke-width:0.35;stroke-miterlimit:4;stroke-dasharray:none;fill:#cccccc;fill-rule: evenodd "/>
<circle cx="-54.0" cy="-30.0" r="2.0" stroke="#191919" stroke-width="0.35 px" style="stroke-width:0.35;stroke-miterlimit:4;stroke-dasharray:none;fill:#cccccc"/>
<circle cx="24.0" cy="-40.0" r="2.0" stroke="#191919" stroke-width="0.35 px" style="stroke-width:0.35;stroke-miterlimit:4;stroke-dasharray:none;fill:#cccccc"/>
<circle cx="6.0" cy="-40.0" r="2.0" stroke="#191919" stroke-width="0.35 px" style="stroke-width:0.35;stroke-miterlimit:4;stroke-dasharray:none;fill:#cccccc"/>
<circle cx="24.0" cy="40.005283" r="2.0" stroke="#191919" stroke-width="0.35 px" style="stroke-width:0.35;stroke-miterlimit:4;stroke-dasharray:none;fill:#cccccc"/>
<circle cx="6.0" cy="40.005283" r="2.0" stroke="#191919" stroke-width="0.35 px" style="stroke-width:0.35;stroke-miterlimit:4;stroke-dasharray:none;fill:#cccccc"/>
<circle cx="-54.0" cy="-30.0" r="2.0" stroke="#191919" stroke-width="0.35 px" style="stroke-width:0.35;stroke-miterlimit:4;stroke-dasharray:none;fill:#cccccc"/>
<circle cx="-54.0" cy="-30.0" r="2.0" stroke="#191919" stroke-width="0.35 px" style="stroke-width:0.35;stroke-miterlimit:4;stroke-dasharray:none;fill:#cccccc"/>
<title>Body</title>
</g>
</svg>